<svg height="3.5in" overflow="hidden" preserveAspectRatio="none" viewBox="0 0 250 350" width="2.5in" xmlns="http://www.w3.org/2000/svg" xmlns:xlink="http://www.w3.org/1999/xlink"><mask id="a"><svg height="350" preserveAspectRatio="none" version="1.1" viewBox="0 0 66.145831 92.60417" width="250"><g transform="translate(0 -204.39579)"><path d="m0 204.3958h66.145836v92.604164h-66.145836z"/><path d="m1.5681282 204.39595 31.5047888-.0001 31.504788.0001v-.00014c.65161.0758 1.395501.84531 1.568128 1.61994v44.68212 44.68213c-.172627.77463-.916518 1.54416-1.568128 1.61994v-.00014l-31.504788.00009-31.5047888-.00009v.00014c-.65161022-.07578-1.3955008-.84531-1.5681282-1.61994v-44.68213-44.68212c.1726274-.77463.91651798-1.54416 1.5681282-1.61994z" fill="#fff"/></g></svg></mask><svg height="350" preserveAspectRatio="none" viewBox="0 0 250 350" width="250"><svg height="350" mask="url(#a)" preserveAspectRatio="none" viewBox="0 0 250 350" width="250"><svg height="350" preserveAspectRatio="none" viewBox="0 0 250 350" width="250"><rect fill="#fff" height="100%" width="100%"/></svg><svg height="350" preserveAspectRatio="none" version="1.1" viewBox="0 0 250 349.99999" width="250"><path d="m26.144862 309.98085 14.683097-4.82807 4.828067 14.6831-14.683097 4.82807z" stroke="#fff" stroke-width=".5"/><path d="m34.28289 307.85406h15.456506v15.45651h-15.456506z" fill="#fff" stroke="#000" stroke-width=".5"/><path d="m41.666531 307.68024 14.98638 3.78313-3.783135 14.98638-14.98638-3.78313z" fill="#fff" stroke="#000" stroke-width=".5"/></svg><svg height="6.984375" preserveAspectRatio="none" viewBox=".296875 -5.390625 84.644058227539 6.984375" width="84.644058227539" x="59.296875" y="317.109375"><path d="m3.89-3.52h1.05c-.1-1.18-.97-1.87-2.22-1.87-1.5 0-2.42 1.06-2.42 2.78 0 1.7.92 2.78 2.39 2.78 1.33 0 2.2-.76 2.26-1.98h-1.06c-.06.67-.48 1.06-1.17 1.06-.84 0-1.33-.69-1.33-1.84 0-1.18.52-1.88 1.38-1.88.9 0 1.07.69 1.12.95zm2.84 3.69c.44 0 .85-.19 1.19-.56 0 .2.03.28.13.39h1.11v-.12c-.19-.18-.24-.29-.24-.49v-2.17c0-.81-.55-1.22-1.61-1.22s-1.62.45-1.69 1.36h.99c.05-.41.22-.53.72-.53.39 0 .59.12.59.39 0 .39-.48.4-.81.45l-.41.08c-.78.13-1.15.53-1.15 1.23 0 .71.47 1.19 1.18 1.19zm1.19-1.75c0 .6-.3.92-.81.92-.34 0-.55-.18-.55-.46 0-.32.16-.46.58-.55l.36-.06c.27-.05.31-.07.42-.13zm1.92-2.36v3.94h1.03v-2.09c0-.6.3-.89.89-.89.11 0 .17 0 .31.03v-1.03c-.04-.02-.09-.02-.12-.02-.45 0-.86.31-1.08.84v-.78zm4.32 4.11c.5 0 .85-.19 1.1-.58v.41h1.01v-5.31h-1.01v1.89c-.25-.39-.6-.58-1.1-.58-.93 0-1.64.91-1.64 2.09 0 1.16.66 2.08 1.64 2.08zm.24-3.31c.51 0 .86.5.86 1.25 0 .72-.36 1.2-.86 1.2-.52 0-.86-.5-.86-1.22 0-.73.34-1.23.86-1.23zm3.57 2h-1c .03.86.65 1.31 1.86 1.31 1.37 0 1.71-.79 1.71-1.34 0-.5-.26-.83-.78-.99l-1.28-.37c-.28-.08-.36-.14-.36-.3 0-.22.24-.37.6-.37.48 0 .71.18.73.53h.98c-.01-.83-.65-1.33-1.71-1.33-1 0-1.61.5-1.61 1.31 0 .77.62.89.86.97l1.21.38c.25.07.35.17.35.32 0 .24-.3.38-.77.38-.64 0-.73-.24-.79-.5zm8.38.06.34 1.08h1.13l-1.83-5.31h-1.22l-1.87 5.31h1.11l.36-1.08zm-.3-.9h-1.39l.71-2.08zm4.86-1.96v.61c-.31-.47-.64-.67-1.09-.67-.94 0-1.63.91-1.63 2.12 0 1.24.64 2.05 1.61 2.05.45 0 .74-.14 1.11-.58v.53c0 .49-.36.82-.87.82-.38 0-.65-.17-.72-.47h-1.05c.02.69.7 1.12 1.73 1.12 1.19 0 1.88-.53 1.88-1.47v-4.06zm-.87.8c.51 0 .89.53.89 1.25s-.38 1.2-.91 1.2c-.48 0-.81-.48-.81-1.2 0-.73.33-1.25.83-1.25zm3.8 3.31c.43 0 .84-.19 1.18-.56 0 .2.03.28.13.39h1.11v-.12c-.19-.18-.24-.29-.24-.49v-2.17c0-.81-.54-1.22-1.61-1.22-1.06 0-1.62.45-1.68 1.36h.98c.05-.41.22-.53.72-.53.39 0 .59.12.59.39 0 .39-.48.4-.81.45l-.41.08c-.78.13-1.15.53-1.15 1.23 0 .71.47 1.19 1.19 1.19zm1.18-1.75c0 .6-.29.92-.81.92-.34 0-.55-.18-.55-.46 0-.32.16-.46.58-.55l.36-.06c.27-.05.31-.07.42-.13zm2.98-2.36h-1.01v3.94h1.01zm0-1.37h-1.01v.92h1.01zm.98 1.37v3.94h1.03v-2.36c0-.47.33-.76.81-.76.44 0 .66.23.66.7v2.42h1.02v-2.64c0-.86-.47-1.36-1.32-1.36-.53 0-.89.2-1.17.64v-.58zm5.21 2.8h-1c .03.86.66 1.31 1.86 1.31 1.38 0 1.72-.79 1.72-1.34 0-.5-.26-.83-.78-.99l-1.28-.37c-.28-.08-.36-.14-.36-.3 0-.22.23-.37.59-.37.49 0 .72.18.74.53h.98c-.01-.83-.65-1.33-1.72-1.33-1 0-1.61.5-1.61 1.31 0 .77.63.89.86.97l1.22.38c.25.07.35.17.35.32 0 .24-.3.38-.77.38-.64 0-.73-.24-.8-.5zm5.08-2.72h-.58v-1.05h-1.01v1.05h-.5v.69h.5v2.42c0 .61.33.92 1 .92.22 0 .41-.03.59-.08v-.71c-.11.01-.17.01-.23.01-.28 0-.35-.08-.35-.42v-2.14h.58zm6.02 1.45v2.41h1.09v-5.31h-1.11v2h-2.09v-2h-1.09v5.31h1.09v-2.41zm5.66 2.41v-3.94h-1.02v2.47c0 .47-.33.77-.83.77-.42 0-.64-.24-.64-.71v-2.53h-1.03v2.75c0 .86.48 1.36 1.33 1.36.53 0 .87-.2 1.17-.64v.47zm.94-3.94v3.94h1.04v-2.36c0-.48.25-.76.68-.76.35 0 .57.18.57.5v2.62h1.01v-2.36c0-.48.27-.76.7-.76.35 0 .55.18.55.5v2.62h1.02v-2.78c0-.77-.47-1.22-1.25-1.22-.5 0-.85.17-1.14.58-.21-.36-.6-.58-1.08-.58-.46 0-.74.16-1.08.56v-.5zm7.53 4.11c.44 0 .84-.19 1.19-.56 0 .2.03.28.12.39h1.11v-.12c-.19-.18-.23-.29-.23-.49v-2.17c0-.81-.55-1.22-1.61-1.22-1.07 0-1.63.45-1.69 1.36h.98c.05-.41.22-.53.72-.53.39 0 .6.12.6.39 0 .39-.49.4-.82.45l-.4.08c-.78.13-1.16.53-1.16 1.23 0 .71.47 1.19 1.19 1.19zm1.19-1.75c0 .6-.3.92-.82.92-.34 0-.54-.18-.54-.46 0-.32.15-.46.58-.55l.35-.06c.27-.05.32-.07.43-.13zm1.91-2.36v3.94h1.04v-2.36c0-.47.32-.76.81-.76.44 0 .65.23.65.7v2.42h1.02v-2.64c0-.86-.47-1.36-1.31-1.36-.53 0-.89.2-1.17.64v-.58zm5.53 0h-1.02v3.94h1.02zm0-1.37h-1.02v.92h1.02zm2.76 1.45h-.58v-1.05h-1.02v1.05h-.5v.69h.5v2.42c0 .61.33.92 1 .92.22 0 .41-.03.6-.08v-.71c-.11.01-.17.01-.24.01-.28 0-.34-.08-.34-.42v-2.14h.58zm1.74 4.05c0 .37-.27.65-.62.65-.08 0-.15 0-.27-.04v.76c.14.03.23.03.36.03 1.11 0 1.22-.61 1.31-.87l1.61-4.66h-1.05l-.81 2.86-.87-2.86h-1.11l1.45 4.1z"/></svg><svg height="270" overflow="visible" preserveAspectRatio="none" viewBox="25 30 200 270" width="200" x="25" y="30"><path d="m35.11 42.38.98 3.06h3.22l-5.25-15.19h-3.45l-5.41 15.19h3.19l1.03-3.06zm-.86-2.61h-3.95l1.97-5.93zm22.2-4.38h2.98c-.28-3.41-2.79-5.39-6.33-5.39-4.29 0-6.96 3.06-6.96 7.98 0 4.88 2.65 7.94 6.87 7.94 3.77 0 6.3-2.19 6.48-5.67h-3.04c-.19 1.94-1.41 3.05-3.35 3.05-2.42 0-3.84-1.97-3.84-5.28 0-3.35 1.48-5.35 3.94-5.35 2.61 0 3.08 1.95 3.25 2.72zm8.12 10.53c1.25 0 2.39-.54 3.43-1.61 0 .58.06.8.32 1.13h3.16v-.36c-.52-.47-.66-.78-.66-1.38v-6.25c0-2.28-1.56-3.45-4.61-3.45-3.03 0-4.62 1.3-4.81 3.89h2.81c.16-1.16.63-1.53 2.07-1.53 1.12 0 1.68.37 1.68 1.12 0 1.1-1.37 1.16-2.32 1.32l-1.18.2c-2.21.38-3.31 1.52-3.31 3.55 0 2.01 1.38 3.37 3.42 3.37zm3.39-5c0 1.69-.82 2.64-2.31 2.64-.97 0-1.58-.51-1.58-1.36 0-.87.46-1.28 1.68-1.53l1-.19c.76-.15.89-.18 1.21-.36zm5.51-6.73v11.25h2.91v-5.99c0-1.7.86-2.56 2.56-2.56.31 0 .53.03.92.09v-2.95c-.17-.03-.26-.03-.36-.03-1.32 0-2.5.88-3.12 2.39v-2.2zm12.37 11.73c1.39 0 2.38-.53 3.11-1.62v1.14h2.91v-15.19h-2.91v5.39c-.73-1.11-1.72-1.64-3.11-1.64-2.69 0-4.73 2.58-4.73 5.98 0 3.29 1.9 5.94 4.73 5.94zm.64-9.48c1.49 0 2.47 1.44 2.47 3.58 0 2.04-1 3.46-2.47 3.46-1.45 0-2.45-1.43-2.45-3.5 0-2.09 1-3.54 2.45-3.54zm22.63 5.94.99 3.06h3.21l-5.25-15.19h-3.45l-5.4 15.19h3.18l1.03-3.06zm-.86-2.61h-3.95l1.97-5.93zm13.89-5.58v1.73c-.87-1.33-1.82-1.92-3.12-1.92-2.67 0-4.67 2.61-4.67 6.08 0 3.5 1.84 5.84 4.61 5.84 1.31 0 2.11-.4 3.18-1.62v1.51c0 1.36-1.01 2.3-2.48 2.3-1.09 0-1.83-.47-2.06-1.31h-3.02c.05 1.95 2 3.18 4.99 3.18 3.39 0 5.34-1.53 5.34-4.17v-11.62zm-2.5 2.25c1.46 0 2.55 1.51 2.55 3.61 0 2.03-1.06 3.43-2.59 3.43-1.38 0-2.33-1.4-2.33-3.43 0-2.13.95-3.61 2.37-3.61zm10.88 9.48c1.25 0 2.39-.54 3.42-1.61 0 .58.06.8.33 1.13h3.15v-.36c-.51-.47-.65-.78-.65-1.38v-6.25c0-2.28-1.57-3.45-4.61-3.45-3.03 0-4.63 1.3-4.82 3.89h2.82c.15-1.16.62-1.53 2.06-1.53 1.12 0 1.69.37 1.69 1.12 0 1.1-1.38 1.16-2.33 1.32l-1.17.2c-2.22.38-3.32 1.52-3.32 3.55 0 2.01 1.38 3.37 3.43 3.37zm3.39-5c0 1.69-.83 2.64-2.32 2.64-.96 0-1.57-.51-1.57-1.36 0-.87.45-1.28 1.67-1.53l1-.19c.76-.15.89-.18 1.22-.36zm8.52-6.73h-2.92v11.25h2.92zm0-3.94h-2.92v2.61h2.92zm2.82 3.94v11.25h2.9v-6.75c0-1.33.94-2.21 2.36-2.21 1.25 0 1.88.69 1.88 2.02v6.94h2.9v-7.55c0-2.47-1.36-3.89-3.76-3.89-1.52 0-2.53.56-3.38 1.81v-1.62zm14.89 7.98h-2.86c.08 2.45 1.89 3.75 5.31 3.75 3.94 0 4.91-2.25 4.91-3.81 0-1.47-.72-2.41-2.21-2.84l-3.68-1.07c-.82-.25-1.02-.4-1.02-.87 0-.63.67-1.03 1.69-1.03 1.39 0 2.08.5 2.11 1.51h2.8c-.04-2.37-1.86-3.81-4.9-3.81-2.84 0-4.62 1.44-4.62 3.75 0 2.2 1.81 2.56 2.47 2.77l3.47 1.09c.73.22.98.45.98.91 0 .68-.81 1.1-2.17 1.1-1.83 0-2.13-.68-2.28-1.45zm14.52-7.75h-1.63v-3.01h-2.92v3.01h-1.44v1.94h1.44v6.91c0 1.78.94 2.65 2.86 2.65.64 0 1.15-.06 1.69-.23v-2.05c-.3.05-.47.06-.68.06-.76 0-.95-.22-.95-1.22v-6.12h1.63z"/><path d="m35.81 64.59v6.89h3.13v-15.19h-3.16v5.69h-5.98v-5.69h-3.13v15.19h3.13v-6.89zm16.2 6.89v-11.25h-2.91v7.05c0 1.32-.94 2.2-2.36 2.2-1.25 0-1.87-.67-1.87-2.02v-7.23h-2.91v7.83c0 2.48 1.37 3.9 3.77 3.9 1.51 0 2.54-.56 3.37-1.81v1.33zm2.72-11.25v11.25h2.9v-6.75c0-1.38.75-2.2 2-2.2.99 0 1.6.56 1.6 1.45v7.5h2.9v-6.75c0-1.38.75-2.2 2-2.2.99 0 1.58.56 1.58 1.45v7.5h2.92v-7.95c0-2.19-1.32-3.49-3.57-3.49-1.43 0-2.43.5-3.3 1.67-.53-1.06-1.66-1.67-3.06-1.67-1.29 0-2.13.44-3.08 1.58v-1.39zm21.51 11.73c1.25 0 2.39-.54 3.42-1.61 0 .58.06.8.33 1.13h3.15v-.36c-.51-.47-.65-.78-.65-1.38v-6.25c0-2.28-1.56-3.45-4.61-3.45-3.03 0-4.63 1.3-4.81 3.89h2.81c.15-1.15.62-1.53 2.06-1.53 1.13 0 1.69.38 1.69 1.13 0 1.09-1.38 1.15-2.33 1.31l-1.17.2c-2.22.38-3.31 1.52-3.31 3.55 0 2.01 1.37 3.37 3.42 3.37zm3.39-5c0 1.69-.83 2.64-2.31 2.64-.97 0-1.58-.51-1.58-1.36 0-.87.45-1.28 1.67-1.53l1-.18c.77-.16.89-.19 1.22-.36zm5.51-6.73v11.25h2.9v-6.75c0-1.33.94-2.2 2.36-2.2 1.25 0 1.88.68 1.88 2.01v6.94h2.9v-7.55c0-2.47-1.36-3.89-3.76-3.89-1.52 0-2.53.56-3.38 1.81v-1.62zm15.78 0h-2.92v11.25h2.92zm0-3.94h-2.92v2.61h2.92zm7.88 4.17h-1.63v-3.01h-2.92v3.01h-1.44v1.94h1.44v6.91c0 1.78.94 2.65 2.86 2.65.64 0 1.16-.06 1.69-.23v-2.05c-.3.05-.47.06-.67.06-.77 0-.96-.21-.96-1.21v-6.13h1.63zm5.01 11.57c0 1.06-.78 1.87-1.82 1.87-.21 0-.39-.03-.76-.12v2.18c.44.07.69.08 1.05.08 3.18 0 3.46-1.73 3.75-2.5l4.6-13.31h-2.98l-2.34 8.19-2.47-8.19h-3.22l4.19 11.7zm11.21-3.6h-3.12v3.05h3.12z"/></svg></svg></svg></svg>