<svg height="3.5in" overflow="hidden" preserveAspectRatio="none" viewBox="0 0 250 350" width="2.5in" xmlns="http://www.w3.org/2000/svg" xmlns:xlink="http://www.w3.org/1999/xlink"><mask id="a"><svg height="350" preserveAspectRatio="none" version="1.1" viewBox="0 0 66.145831 92.60417" width="250"><g transform="translate(0 -204.39579)"><path d="m0 204.3958h66.145836v92.604164h-66.145836z"/><path d="m1.5681282 204.39595 31.5047888-.0001 31.504788.0001v-.00014c.65161.0758 1.395501.84531 1.568128 1.61994v44.68212 44.68213c-.172627.77463-.916518 1.54416-1.568128 1.61994v-.00014l-31.504788.00009-31.5047888-.00009v.00014c-.65161022-.07578-1.3955008-.84531-1.5681282-1.61994v-44.68213-44.68212c.1726274-.77463.91651798-1.54416 1.5681282-1.61994z" fill="#fff"/></g></svg></mask><svg height="350" preserveAspectRatio="none" viewBox="0 0 250 350" width="250"><svg height="350" mask="url(#a)" preserveAspectRatio="none" viewBox="0 0 250 350" width="250"><svg height="350" preserveAspectRatio="none" viewBox="0 0 250 350" width="250"><rect height="100%" width="100%"/></svg><svg height="350" preserveAspectRatio="none" version="1.1" viewBox="0 0 250 349.99999" width="250"><path d="m26.144862 309.98085 14.683097-4.82807 4.828067 14.6831-14.683097 4.82807z" stroke="#fff" stroke-width=".5"/><path d="m34.28289 307.85406h15.456506v15.45651h-15.456506z" fill="#fff" stroke="#000" stroke-width=".5"/><path d="m41.666531 307.68024 14.98638 3.78313-3.783135 14.98638-14.98638-3.78313z" fill="#fff" stroke="#000" stroke-width=".5"/></svg><svg height="6.984375" preserveAspectRatio="none" viewBox=".296875 -5.390625 84.644058227539 6.984375" width="84.644058227539" x="59.296875" y="317.109375"><path d="m3.89-3.52h1.05c-.1-1.18-.97-1.87-2.22-1.87-1.5 0-2.42 1.06-2.42 2.78 0 1.7.92 2.78 2.39 2.78 1.33 0 2.2-.76 2.26-1.98h-1.06c-.06.67-.48 1.06-1.17 1.06-.84 0-1.33-.69-1.33-1.84 0-1.18.52-1.88 1.38-1.88.9 0 1.07.69 1.12.95zm2.84 3.69c.44 0 .85-.19 1.19-.56 0 .2.03.28.13.39h1.11v-.12c-.19-.18-.24-.29-.24-.49v-2.17c0-.81-.55-1.22-1.61-1.22s-1.62.45-1.69 1.36h.99c.05-.41.22-.53.72-.53.39 0 .59.12.59.39 0 .39-.48.4-.81.45l-.41.08c-.78.13-1.15.53-1.15 1.23 0 .71.47 1.19 1.18 1.19zm1.19-1.75c0 .6-.3.92-.81.92-.34 0-.55-.18-.55-.46 0-.32.16-.46.58-.55l.36-.06c.27-.05.31-.07.42-.13zm1.92-2.36v3.94h1.03v-2.09c0-.6.3-.89.89-.89.11 0 .17 0 .31.03v-1.03c-.04-.02-.09-.02-.12-.02-.45 0-.86.31-1.08.84v-.78zm4.32 4.11c.5 0 .85-.19 1.1-.58v.41h1.01v-5.31h-1.01v1.89c-.25-.39-.6-.58-1.1-.58-.93 0-1.64.91-1.64 2.09 0 1.16.66 2.08 1.64 2.08zm.24-3.31c.51 0 .86.5.86 1.25 0 .72-.36 1.2-.86 1.2-.52 0-.86-.5-.86-1.22 0-.73.34-1.23.86-1.23zm3.57 2h-1c .03.86.65 1.31 1.86 1.31 1.37 0 1.71-.79 1.71-1.34 0-.5-.26-.83-.78-.99l-1.28-.37c-.28-.08-.36-.14-.36-.3 0-.22.24-.37.6-.37.48 0 .71.18.73.53h.98c-.01-.83-.65-1.33-1.71-1.33-1 0-1.61.5-1.61 1.31 0 .77.62.89.86.97l1.21.38c.25.07.35.17.35.32 0 .24-.3.38-.77.38-.64 0-.73-.24-.79-.5zm8.38.06.34 1.08h1.13l-1.83-5.31h-1.22l-1.87 5.31h1.11l.36-1.08zm-.3-.9h-1.39l.71-2.08zm4.86-1.96v.61c-.31-.47-.64-.67-1.09-.67-.94 0-1.63.91-1.63 2.12 0 1.24.64 2.05 1.61 2.05.45 0 .74-.14 1.11-.58v.53c0 .49-.36.82-.87.82-.38 0-.65-.17-.72-.47h-1.05c.02.69.7 1.12 1.73 1.12 1.19 0 1.88-.53 1.88-1.47v-4.06zm-.87.8c.51 0 .89.53.89 1.25s-.38 1.2-.91 1.2c-.48 0-.81-.48-.81-1.2 0-.73.33-1.25.83-1.25zm3.8 3.31c.43 0 .84-.19 1.18-.56 0 .2.03.28.13.39h1.11v-.12c-.19-.18-.24-.29-.24-.49v-2.17c0-.81-.54-1.22-1.61-1.22-1.06 0-1.62.45-1.68 1.36h.98c.05-.41.22-.53.72-.53.39 0 .59.12.59.39 0 .39-.48.4-.81.45l-.41.08c-.78.13-1.15.53-1.15 1.23 0 .71.47 1.19 1.19 1.19zm1.18-1.75c0 .6-.29.92-.81.92-.34 0-.55-.18-.55-.46 0-.32.16-.46.58-.55l.36-.06c.27-.05.31-.07.42-.13zm2.98-2.36h-1.01v3.94h1.01zm0-1.37h-1.01v.92h1.01zm.98 1.37v3.94h1.03v-2.36c0-.47.33-.76.81-.76.44 0 .66.23.66.7v2.42h1.02v-2.64c0-.86-.47-1.36-1.32-1.36-.53 0-.89.2-1.17.64v-.58zm5.21 2.8h-1c .03.86.66 1.31 1.86 1.31 1.38 0 1.72-.79 1.72-1.34 0-.5-.26-.83-.78-.99l-1.28-.37c-.28-.08-.36-.14-.36-.3 0-.22.23-.37.59-.37.49 0 .72.18.74.53h.98c-.01-.83-.65-1.33-1.72-1.33-1 0-1.61.5-1.61 1.31 0 .77.63.89.86.97l1.22.38c.25.07.35.17.35.32 0 .24-.3.38-.77.38-.64 0-.73-.24-.8-.5zm5.08-2.72h-.58v-1.05h-1.01v1.05h-.5v.69h.5v2.42c0 .61.33.92 1 .92.22 0 .41-.03.59-.08v-.71c-.11.01-.17.01-.23.01-.28 0-.35-.08-.35-.42v-2.14h.58zm6.02 1.45v2.41h1.09v-5.31h-1.11v2h-2.09v-2h-1.09v5.31h1.09v-2.41zm5.66 2.41v-3.94h-1.02v2.47c0 .47-.33.77-.83.77-.42 0-.64-.24-.64-.71v-2.53h-1.03v2.75c0 .86.48 1.36 1.33 1.36.53 0 .87-.2 1.17-.64v.47zm.94-3.94v3.94h1.04v-2.36c0-.48.25-.76.68-.76.35 0 .57.18.57.5v2.62h1.01v-2.36c0-.48.27-.76.7-.76.35 0 .55.18.55.5v2.62h1.02v-2.78c0-.77-.47-1.22-1.25-1.22-.5 0-.85.17-1.14.58-.21-.36-.6-.58-1.08-.58-.46 0-.74.16-1.08.56v-.5zm7.53 4.11c.44 0 .84-.19 1.19-.56 0 .2.03.28.12.39h1.11v-.12c-.19-.18-.23-.29-.23-.49v-2.17c0-.81-.55-1.22-1.61-1.22-1.07 0-1.63.45-1.69 1.36h.98c.05-.41.22-.53.72-.53.39 0 .6.12.6.39 0 .39-.49.4-.82.45l-.4.08c-.78.13-1.16.53-1.16 1.23 0 .71.47 1.19 1.19 1.19zm1.19-1.75c0 .6-.3.92-.82.92-.34 0-.54-.18-.54-.46 0-.32.15-.46.58-.55l.35-.06c.27-.05.32-.07.43-.13zm1.91-2.36v3.94h1.04v-2.36c0-.47.32-.76.81-.76.44 0 .65.23.65.7v2.42h1.02v-2.64c0-.86-.47-1.36-1.31-1.36-.53 0-.89.2-1.17.64v-.58zm5.53 0h-1.02v3.94h1.02zm0-1.37h-1.02v.92h1.02zm2.76 1.45h-.58v-1.05h-1.02v1.05h-.5v.69h.5v2.42c0 .61.33.92 1 .92.22 0 .41-.03.6-.08v-.71c-.11.01-.17.01-.24.01-.28 0-.34-.08-.34-.42v-2.14h.58zm1.74 4.05c0 .37-.27.65-.62.65-.08 0-.15 0-.27-.04v.76c.14.03.23.03.36.03 1.11 0 1.22-.61 1.31-.87l1.61-4.66h-1.05l-.81 2.86-.87-2.86h-1.11l1.45 4.1z" fill="#fff"/></svg><svg height="270" overflow="visible" preserveAspectRatio="none" viewBox="25 30 200 270" width="200" x="25" y="30"><path d="m29.8 33.36 2.72 11.83h3.12l2.69-11.83v11.83h3.12v-15.19h-4.7l-2.67 12.08-2.75-12.08h-4.66v15.19h3.13zm17.57 12.31c1.25 0 2.39-.55 3.42-1.61 0 .58.06.8.33 1.13h3.16v-.36c-.52-.47-.66-.78-.66-1.38v-6.25c0-2.28-1.56-3.45-4.61-3.45-3.03 0-4.62 1.3-4.81 3.89h2.81c.16-1.16.63-1.53 2.06-1.53 1.13 0 1.69.37 1.69 1.12 0 1.1-1.37 1.16-2.33 1.32l-1.17.2c-2.22.37-3.31 1.52-3.31 3.55 0 2.01 1.37 3.37 3.42 3.37zm3.39-5c0 1.69-.83 2.64-2.31 2.64-.97 0-1.58-.51-1.58-1.36 0-.87.45-1.28 1.67-1.53l1-.19c.77-.15.89-.18 1.22-.35zm8.41-2.36v-8.31h-2.9v15.19h2.9v-3.69l1.18-1.27 2.68 4.96h3.41l-4.09-7 3.82-4.25h-3.31zm13.53-4.56c-3.23 0-5.22 2.33-5.22 6.11 0 3.59 1.97 5.81 5.16 5.81 2.52 0 4.55-1.44 5.2-3.65h-2.87c-.36.9-1.17 1.42-2.24 1.42-1.95 0-2.26-1.44-2.32-2.96h7.53c.03-.25.03-.36.03-.5 0-4.98-3.02-6.23-5.27-6.23zm2.22 4.8h-4.47c.19-1.72.91-2.57 2.21-2.57 1.36 0 2.14.91 2.26 2.57zm13.92 7.12c1.25 0 2.39-.55 3.42-1.61 0 .58.06.8.33 1.13h3.16v-.36c-.52-.47-.66-.78-.66-1.38v-6.25c0-2.28-1.56-3.45-4.61-3.45-3.03 0-4.63 1.3-4.81 3.89h2.81c.16-1.16.62-1.53 2.06-1.53 1.13 0 1.69.37 1.69 1.12 0 1.1-1.38 1.16-2.33 1.32l-1.17.2c-2.22.37-3.31 1.52-3.31 3.55 0 2.01 1.37 3.37 3.42 3.37zm3.39-5c0 1.69-.83 2.64-2.31 2.64-.97 0-1.58-.51-1.58-1.36 0-.87.45-1.28 1.67-1.53l1-.19c.77-.15.89-.18 1.22-.35zm18.25-2.36v6.88h2.91v-7.55c0-3.11-2.05-3.89-3.66-3.89-1.44 0-2.48.59-3.3 1.81v-5.56h-2.9v15.19h2.9v-6.75c0-1.3.94-2.21 2.25-2.21 1.36 0 1.8.88 1.8 2.08zm8.52 7.36c1.25 0 2.39-.55 3.42-1.61 0 .58.06.8.33 1.13h3.15v-.36c-.51-.47-.65-.78-.65-1.38v-6.25c0-2.28-1.56-3.45-4.61-3.45-3.03 0-4.63 1.3-4.81 3.89h2.81c.15-1.16.62-1.53 2.06-1.53 1.13 0 1.69.37 1.69 1.12 0 1.1-1.38 1.16-2.33 1.32l-1.17.2c-2.22.37-3.31 1.52-3.31 3.55 0 2.01 1.37 3.37 3.42 3.37zm3.39-5c0 1.69-.83 2.64-2.31 2.64-.97 0-1.58-.51-1.58-1.36 0-.87.45-1.28 1.67-1.53l1-.19c.77-.15.89-.18 1.22-.35zm8.52-6.73h-2.92v11.25h2.92zm0-3.94h-2.92v2.61h2.92zm5.72 8.31v-8.31h-2.9v15.19h2.9v-3.69l1.18-1.27 2.68 4.96h3.41l-4.09-7 3.82-4.25h-3.31zm18.89 6.88v-11.25h-2.9v7.04c0 1.33-.94 2.21-2.36 2.21-1.25 0-1.88-.67-1.88-2.02v-7.23h-2.91v7.83c0 2.48 1.38 3.9 3.77 3.9 1.52 0 2.55-.56 3.38-1.81v1.33zm5.53-3.05h-3.12v3.05h3.12z" fill="#fff"/></svg><svg height="10.59375" preserveAspectRatio="none" viewBox="-32.620391845703 -10.28125 32.620391845703 10.59375" width="32.620391845703" x="167.379608154297" y="313.71875"><svg height="10.59375" preserveAspectRatio="none" viewBox="1.109375 -10.28125 32.620391845703 10.59375" width="32.620391845703" x="-32.620391845703" y="-10.28125"><path d="m3.19-3.61h2.59c1.86 0 3.06-1.31 3.06-3.37 0-2.02-1.15-3.13-3.26-3.13h-4.47v10.11h2.08zm0-1.73v-3.04h1.95c1.11 0 1.61.49 1.61 1.52s-.5 1.52-1.61 1.52zm9.39-4.77h-2.08v10.11h2.08zm8.54 3.42h1.98c-.17-2.28-1.86-3.59-4.22-3.59-2.86 0-4.62 2.05-4.62 5.31 0 3.25 1.75 5.28 4.58 5.28 2.5 0 4.18-1.45 4.31-3.76h-2.03c-.13 1.28-.94 2.03-2.24 2.03-1.61 0-2.54-1.31-2.54-3.52 0-2.23.98-3.56 2.62-3.56 1.73 0 2.05 1.3 2.16 1.81zm5.77 3.3 1.04-1.08 3.32 4.47h2.48l-4.47-5.77 4.03-4.34h-2.45l-3.95 4.44v-4.44h-2.08v10.11h2.08z" fill="#fff"/></svg></svg><svg height="20" overflow="visible" preserveAspectRatio="none" viewBox="-10 -10 20 20" width="20" x="205" y="309"><circle fill="#fff" r="10"/></svg><svg height="12.453125" preserveAspectRatio="none" viewBox="-4.0546875 -6.2265625 8.109375 12.453125" width="8.109375" x="210.9453125" y="312.7734375"><svg height="12.453125" preserveAspectRatio="none" viewBox=".484375 -12.0625 8.109375 12.453125" width="8.109375" x="-4.0546875" y="-6.2265625"><path d="m .64-8.3v.21h2.16c.03-1.27.29-2.08 1.61-2.08.93 0 1.47.56 1.47 1.55 0 1.18-.68 1.78-2.07 1.78h-.2v1.56c.83 0 .97.01 1.37.12.79.21 1.29.89 1.29 1.77 0 1.03-.74 1.78-1.75 1.78-1.1 0-1.71-.64-1.77-1.86h-2.27c.02 2.38 1.57 3.86 3.99 3.86 2.51 0 4.12-1.48 4.12-3.78 0-1.39-.59-2.3-1.93-2.94 1.11-.69 1.56-1.44 1.56-2.51 0-1.97-1.47-3.22-3.75-3.22-1.52 0-3.83.56-3.83 3.76z"/></svg></svg><svg height="10.109375" preserveAspectRatio="none" viewBox="-41.656021118164 -10.109375 41.656021118164 10.109375" width="41.656021118164" x="158.343978881836" y="288.890625"><svg height="10.109375" preserveAspectRatio="none" viewBox="1.109375 -10.109375 41.656021118164 10.109375" width="41.656021118164" x="-41.656021118164" y="-10.109375"><path d="m1.11 0h3.95c1.55 0 2.52-.36 3.19-1.17.81-.95 1.23-2.33 1.23-3.89s-.42-2.92-1.23-3.89c-.67-.82-1.63-1.16-3.19-1.16h-3.95zm2.08-1.73v-6.65h1.87c1.56 0 2.35 1.1 2.35 3.33 0 2.22-.79 3.32-2.35 3.32zm13.7 0c0 .93.05 1.25.31 1.73h2.24v-.38c-.32-.18-.44-.39-.44-.82-.06-2.99-.11-3.13-1.41-3.69 1.14-.44 1.71-1.25 1.71-2.49 0-1.12-.54-2.73-2.72-2.73h-5.43v10.11h2.08v-4.02h2.39c.91 0 1.3.36 1.3 1.22 0 .42-.03.32-.03 1.07zm.33-5.36c0 1.18-.61 1.34-1.47 1.34h-2.52v-2.63h2.52c.87 0 1.47.16 1.47 1.29zm9.58 5.04.65 2.05h2.14l-3.5-10.11h-2.29l-3.6 10.11h2.13l.67-2.05zm-.58-1.73h-2.63l1.32-3.95zm13.73 3.78 2.82-10.11h-2.21l-1.51 7.58-1.64-7.58h-2.05l-1.58 7.56-1.56-7.56h-2.2l2.85 10.11h1.88l1.64-7.89 1.7 7.89z" fill="#fff"/></svg></svg><svg height="20" overflow="visible" preserveAspectRatio="none" viewBox="-10 -10 20 20" width="20" x="205" y="284"><circle fill="#fff" r="10"/></svg><svg height="12.0625" preserveAspectRatio="none" viewBox="-4.0390625 -6.03125 8.078125 12.0625" width="8.078125" x="210.9609375" y="287.96875"><svg height="12.0625" preserveAspectRatio="none" viewBox=".5 -12.0625 8.078125 12.0625" width="8.078125" x="-4.0390625" y="-6.03125"><path d="m8.58-8.31c0-2.28-1.56-3.75-4.05-3.75-2.45 0-3.87 1.45-3.87 3.95 0 .09 0 .23.01.42h2.22v-.39c0-1.31.63-2.08 1.69-2.08 1.03 0 1.67.72 1.67 1.89 0 1.3-.41 1.85-3.02 3.68-1.98 1.37-2.62 2.4-2.73 4.59h8.03v-2.08h-5c1-2.12 5.05-2.7 5.05-6.23z"/></svg></svg></svg></svg></svg>