<svg height="350" viewBox="0 0 66.145831 92.60417" width="250" xmlns="http://www.w3.org/2000/svg">
    <path d="m1.5681282.00016 31.5047888-.0001 31.504788.0001v-.00014c.65161.0758 1.395501.84531 1.568128 1.61994v44.68212 44.68213c-.172627.77463-.916518 1.54416-1.568128 1.61994v-.00014l-31.504788.00009-31.5047888-.00009v.00014c-.65161022-.07578-1.3955008-.84531-1.5681282-1.61994v-44.68213-44.68212c.1726274-.77463.91651798-1.54416 1.5681282-1.61994z"/>
    <path d="m55.560095 31.553413q0 2.79914-.990465 5.124579-.947401 2.325439-2.79914 4.392497-1.808675 2.023993-8.354356 6.760999-5.727471 4.134115-5.94279 8.698866h-11.498006q.258382-4.43556 2.540758-7.923719 2.282376-3.531223 6.459554-6.41649 4.866197-3.315905 6.631809-5.426026 1.765611-2.153184 1.765611-4.693942 0-3.315905-2.626885-5.296834-2.626885-2.023994-6.890191-2.023994-4.349433 0-7.320828 2.540758-2.928331 2.540758-3.445095 6.717936l-12.273153-.516764q1.16272-8.74193 7.191637-13.608127 6.028917-4.866198 15.675184-4.866198 9.990777 0 15.933567 4.478625 5.942789 4.478624 5.942789 12.057834zm-29.929266 42.460801v-11.627197h12.445407v11.627197z"
          fill="#fff" transform="translate(.47365728 1.6270264)"/>
</svg>